# xmcd
# 
# Track frame offsets:
#     150
#     25717
#     44880
#     67245
#     86545
#     105632
#     126302
#     146387
#     165784
#     184575
#     207062
# 
# Disc length: 3100
# 
# Revision: 12
# Processed by: cddbd v1.5.2PL0 Copyright (c) Steve Scherf et al.
# Submitted via: fre:ac v1.0.31
# 
DISCID=930c1a0b
DTITLE=BobCarlisle - Butterfly Kisses~ShadesOfGrace
DYEAR=1997
DGENRE=Christian
TTITLE0=Butterfly Kisses
TTITLE1=You Must Have Been An Angel
TTITLE2=Man Of His Word
TTITLE3=On My Way To Paradise
TTITLE4=One Man Revival
TTITLE5=Mighty Love
TTITLE6=Living Water
TTITLE7=It Is Well With My Soul
TTITLE8=On My Knees
TTITLE9=I'm Gonna Be Ready
TTITLE10=Butterfly Kisses (reprise)
EXTD=
EXTT0=
EXTT1=
EXTT2=
EXTT3=
EXTT4=
EXTT5=
EXTT6=
EXTT7=
EXTT8=
EXTT9=
EXTT10=
PLAYORDER=
